<svg width="141" height="26" viewBox="0 0 141 26" fill="none" xmlns="http://www.w3.org/2000/svg">
<path d="M43.7518 2.65015C45.8947 2.65015 47.7744 3.06897 49.3913 3.90662C51.0276 4.74426 52.2841 5.9423 53.1607 7.50071C54.0568 9.03965 54.5048 10.8318 54.5048 12.8772C54.5048 14.9227 54.0568 16.7148 53.1607 18.2538C52.2841 19.7732 51.0276 20.9518 49.3913 21.7894C47.7744 22.6271 45.8947 23.0459 43.7518 23.0459H36.6221V2.65015H43.7518ZM43.6057 19.5687C45.7486 19.5687 47.4043 18.9843 48.5731 17.8155C49.7419 16.6467 50.3263 15.0006 50.3263 12.8772C50.3263 10.7539 49.7419 9.09809 48.5731 7.90979C47.4043 6.70202 45.7486 6.09814 43.6057 6.09814H40.7129V19.5687H43.6057Z" fill="#374914"/>
<path d="M64.7552 23.3089C63.1968 23.3089 61.7942 22.968 60.5475 22.2862C59.3008 21.5849 58.317 20.6011 57.5962 19.3349C56.895 18.0687 56.5443 16.6077 56.5443 14.9519C56.5443 13.2961 56.9047 11.835 57.6255 10.5688C58.3657 9.30263 59.369 8.32862 60.6352 7.64681C61.9014 6.94553 63.3137 6.59488 64.8721 6.59488C66.4305 6.59488 67.8428 6.94553 69.109 7.64681C70.3752 8.32862 71.3687 9.30263 72.0895 10.5688C72.8297 11.835 73.1999 13.2961 73.1999 14.9519C73.1999 16.6077 72.82 18.0687 72.0603 19.3349C71.32 20.6011 70.3071 21.5849 69.0214 22.2862C67.7552 22.968 66.3331 23.3089 64.7552 23.3089ZM64.7552 19.744C65.4955 19.744 66.187 19.5687 66.8299 19.218C67.4922 18.8479 68.0182 18.3025 68.4078 17.5817C68.7974 16.8609 68.9922 15.9843 68.9922 14.9519C68.9922 13.4129 68.5831 12.2344 67.7649 11.4162C66.9662 10.5786 65.9825 10.1598 64.8137 10.1598C63.6448 10.1598 62.6611 10.5786 61.8624 11.4162C61.0832 12.2344 60.6936 13.4129 60.6936 14.9519C60.6936 16.4908 61.0735 17.6791 61.8332 18.5168C62.6124 19.3349 63.5864 19.744 64.7552 19.744Z" fill="#374914"/>
<path d="M85.1713 6.6241C87.0998 6.6241 88.6582 7.23773 89.8465 8.46498C91.0348 9.67275 91.6289 11.3675 91.6289 13.5493V23.0459H87.5381V14.1045C87.5381 12.8188 87.2167 11.8351 86.5738 11.1532C85.931 10.452 85.0544 10.1013 83.944 10.1013C82.8142 10.1013 81.9181 10.452 81.2558 11.1532C80.6129 11.8351 80.2915 12.8188 80.2915 14.1045V23.0459H76.2007V6.85786H80.2915V8.87406C80.8369 8.17278 81.5285 7.62733 82.3661 7.23773C83.2232 6.82864 84.1583 6.6241 85.1713 6.6241Z" fill="#374914"/>
<path d="M110.568 14.6012C110.568 15.1856 110.529 15.7116 110.451 16.1791H98.6165C98.7139 17.3479 99.123 18.2635 99.8437 18.9258C100.564 19.5882 101.451 19.9193 102.503 19.9193C104.022 19.9193 105.103 19.2667 105.746 17.9616H110.158C109.691 19.52 108.795 20.8057 107.47 21.8186C106.146 22.8121 104.519 23.3089 102.59 23.3089C101.032 23.3089 99.6294 22.968 98.3827 22.2862C97.1555 21.5849 96.1912 20.6011 95.4899 19.3349C94.8081 18.0687 94.4672 16.6077 94.4672 14.9519C94.4672 13.2766 94.8081 11.8058 95.4899 10.5396C96.1717 9.27341 97.1262 8.2994 98.3535 7.61759C99.5807 6.93579 100.993 6.59488 102.59 6.59488C104.129 6.59488 105.503 6.92604 106.71 7.58837C107.938 8.2507 108.883 9.19549 109.545 10.4227C110.227 11.6305 110.568 13.0233 110.568 14.6012ZM106.331 13.4324C106.311 12.3805 105.931 11.5428 105.191 10.9195C104.451 10.2766 103.545 9.95521 102.474 9.95521C101.461 9.95521 100.603 10.2669 99.9022 10.8903C99.2204 11.4941 98.8015 12.3415 98.6457 13.4324H106.331Z" fill="#374914"/>
<path d="M117.644 9.37081C118.17 8.51368 118.852 7.84161 119.69 7.35461C120.547 6.8676 121.521 6.6241 122.612 6.6241V10.9195H121.531C120.245 10.9195 119.271 11.2214 118.609 11.8253C117.966 12.4292 117.644 13.4811 117.644 14.9811V23.0459H113.553V6.85786H117.644V9.37081Z" fill="#374914"/>
<path d="M132.555 23.3089C130.997 23.3089 129.594 22.968 128.348 22.2862C127.101 21.5849 126.117 20.6011 125.396 19.3349C124.695 18.0687 124.344 16.6077 124.344 14.9519C124.344 13.2961 124.705 11.835 125.426 10.5688C126.166 9.30263 127.169 8.32862 128.435 7.64681C129.701 6.94553 131.114 6.59488 132.672 6.59488C134.231 6.59488 135.643 6.94553 136.909 7.64681C138.175 8.32862 139.169 9.30263 139.89 10.5688C140.63 11.835 141 13.2961 141 14.9519C141 16.6077 140.62 18.0687 139.86 19.3349C139.12 20.6011 138.107 21.5849 136.822 22.2862C135.555 22.968 134.133 23.3089 132.555 23.3089ZM132.555 19.744C133.296 19.744 133.987 19.5687 134.63 19.218C135.292 18.8479 135.818 18.3025 136.208 17.5817C136.597 16.8609 136.792 15.9843 136.792 14.9519C136.792 13.4129 136.383 12.2344 135.565 11.4162C134.766 10.5786 133.783 10.1598 132.614 10.1598C131.445 10.1598 130.461 10.5786 129.663 11.4162C128.883 12.2344 128.494 13.4129 128.494 14.9519C128.494 16.4908 128.874 17.6791 129.633 18.5168C130.413 19.3349 131.387 19.744 132.555 19.744Z" fill="#374914"/>
<path fill-rule="evenodd" clip-rule="evenodd" d="M13.3382 7.31125C12.4084 7.84955 11.2618 7.84955 10.332 7.31125L7.19047 5.49248C6.40307 5.03662 5.43201 5.03662 4.64462 5.49248C3.86004 5.94671 3.37695 6.7846 3.37695 7.69118L3.37695 14.618C3.37695 15.6886 3.94739 16.678 4.87384 17.2143L10.332 20.3743C11.2618 20.9126 12.4084 20.9126 13.3382 20.3743L18.7963 17.2143C19.7228 16.678 20.2932 15.6886 20.2932 14.618L20.2932 7.69119C20.2932 6.78461 19.8101 5.94672 19.0256 5.49249C18.2382 5.03662 17.2671 5.03662 16.4797 5.49249L13.3382 7.31125ZM16.2495 1.72368C17.1793 1.18538 18.3259 1.18538 19.2557 1.72368L22.1733 3.41278C23.0997 3.94915 23.6702 4.93854 23.6702 6.00906L23.6702 16.565C23.6702 17.6355 23.0997 18.6249 22.1733 19.1613L13.3382 24.2764C12.4084 24.8147 11.2618 24.8147 10.332 24.2764L1.49689 19.1613C0.57044 18.6249 0 17.6355 0 16.565L0 6.00906C0 4.93855 0.57044 3.94915 1.49689 3.41278L4.41443 1.72368C5.34422 1.18538 6.49087 1.18538 7.42065 1.72368L10.332 3.40918C11.2618 3.94748 12.4084 3.94747 13.3382 3.40918L16.2495 1.72368Z" fill="#B7E459"/>
<path fill-rule="evenodd" clip-rule="evenodd" d="M6.98221 15.1664C6.49614 14.8811 6.19757 14.3596 6.19757 13.796C6.19757 12.5677 7.53161 11.8039 8.59089 12.4256L10.5049 13.5491C11.3987 14.0737 12.5063 14.0737 13.4001 13.5491L15.314 12.4257C16.3733 11.8039 17.7073 12.5677 17.7073 13.796C17.7073 14.3596 17.4088 14.8811 16.9227 15.1664L13.471 17.1923C12.5334 17.7427 11.3714 17.7427 10.4338 17.1923L6.98221 15.1664Z" fill="#B7E459"/>
</svg>
