<svg width="375" height="37" viewBox="0 0 375 37" fill="none" xmlns="http://www.w3.org/2000/svg">
<path d="M43.7518 8.15015C45.8947 8.15015 47.7744 8.56897 49.3913 9.40662C51.0276 10.2443 52.2841 11.4423 53.1607 13.0007C54.0568 14.5396 54.5048 16.3318 54.5048 18.3772C54.5048 20.4227 54.0568 22.2148 53.1607 23.7538C52.2841 25.2732 51.0276 26.4518 49.3913 27.2894C47.7744 28.1271 45.8947 28.5459 43.7518 28.5459H36.6221V8.15015H43.7518ZM43.6057 25.0687C45.7486 25.0687 47.4043 24.4843 48.5731 23.3155C49.7419 22.1467 50.3263 20.5006 50.3263 18.3772C50.3263 16.2539 49.7419 14.5981 48.5731 13.4098C47.4043 12.202 45.7486 11.5981 43.6057 11.5981H40.7129V25.0687H43.6057Z" fill="#374914"/>
<path d="M64.7552 28.8089C63.1968 28.8089 61.7942 28.468 60.5475 27.7862C59.3008 27.0849 58.317 26.1011 57.5962 24.8349C56.895 23.5687 56.5443 22.1077 56.5443 20.4519C56.5443 18.7961 56.9047 17.335 57.6255 16.0688C58.3657 14.8026 59.369 13.8286 60.6352 13.1468C61.9014 12.4455 63.3137 12.0949 64.8721 12.0949C66.4305 12.0949 67.8428 12.4455 69.109 13.1468C70.3752 13.8286 71.3687 14.8026 72.0895 16.0688C72.8297 17.335 73.1999 18.7961 73.1999 20.4519C73.1999 22.1077 72.82 23.5687 72.0603 24.8349C71.32 26.1011 70.3071 27.0849 69.0214 27.7862C67.7552 28.468 66.3331 28.8089 64.7552 28.8089ZM64.7552 25.244C65.4955 25.244 66.187 25.0687 66.8299 24.718C67.4922 24.3479 68.0182 23.8025 68.4078 23.0817C68.7974 22.3609 68.9922 21.4843 68.9922 20.4519C68.9922 18.9129 68.5831 17.7344 67.7649 16.9162C66.9662 16.0786 65.9825 15.6598 64.8137 15.6598C63.6448 15.6598 62.6611 16.0786 61.8624 16.9162C61.0832 17.7344 60.6936 18.9129 60.6936 20.4519C60.6936 21.9908 61.0735 23.1791 61.8332 24.0168C62.6124 24.8349 63.5864 25.244 64.7552 25.244Z" fill="#374914"/>
<path d="M85.1713 12.1241C87.0998 12.1241 88.6582 12.7377 89.8465 13.965C91.0348 15.1728 91.6289 16.8675 91.6289 19.0493V28.5459H87.5381V19.6045C87.5381 18.3188 87.2167 17.3351 86.5738 16.6532C85.931 15.952 85.0544 15.6013 83.944 15.6013C82.8142 15.6013 81.9181 15.952 81.2558 16.6532C80.6129 17.3351 80.2915 18.3188 80.2915 19.6045V28.5459H76.2007V12.3579H80.2915V14.3741C80.8369 13.6728 81.5285 13.1273 82.3661 12.7377C83.2232 12.3286 84.1583 12.1241 85.1713 12.1241Z" fill="#374914"/>
<path d="M110.568 20.1012C110.568 20.6856 110.529 21.2116 110.451 21.6791H98.6165C98.7139 22.8479 99.123 23.7635 99.8437 24.4258C100.564 25.0882 101.451 25.4193 102.503 25.4193C104.022 25.4193 105.103 24.7667 105.746 23.4616H110.158C109.691 25.02 108.795 26.3057 107.47 27.3186C106.146 28.3121 104.519 28.8089 102.59 28.8089C101.032 28.8089 99.6294 28.468 98.3827 27.7862C97.1555 27.0849 96.1912 26.1011 95.4899 24.8349C94.8081 23.5687 94.4672 22.1077 94.4672 20.4519C94.4672 18.7766 94.8081 17.3058 95.4899 16.0396C96.1717 14.7734 97.1262 13.7994 98.3535 13.1176C99.5807 12.4358 100.993 12.0949 102.59 12.0949C104.129 12.0949 105.503 12.426 106.71 13.0884C107.938 13.7507 108.883 14.6955 109.545 15.9227C110.227 17.1305 110.568 18.5233 110.568 20.1012ZM106.331 18.9324C106.311 17.8805 105.931 17.0428 105.191 16.4195C104.451 15.7766 103.545 15.4552 102.474 15.4552C101.461 15.4552 100.603 15.7669 99.9022 16.3903C99.2204 16.9941 98.8015 17.8415 98.6457 18.9324H106.331Z" fill="#374914"/>
<path d="M117.644 14.8708C118.17 14.0137 118.852 13.3416 119.69 12.8546C120.547 12.3676 121.521 12.1241 122.612 12.1241V16.4195H121.531C120.245 16.4195 119.271 16.7214 118.609 17.3253C117.966 17.9292 117.644 18.9811 117.644 20.4811V28.5459H113.553V12.3579H117.644V14.8708Z" fill="#374914"/>
<path d="M132.555 28.8089C130.997 28.8089 129.594 28.468 128.348 27.7862C127.101 27.0849 126.117 26.1011 125.396 24.8349C124.695 23.5687 124.344 22.1077 124.344 20.4519C124.344 18.7961 124.705 17.335 125.426 16.0688C126.166 14.8026 127.169 13.8286 128.435 13.1468C129.701 12.4455 131.114 12.0949 132.672 12.0949C134.231 12.0949 135.643 12.4455 136.909 13.1468C138.175 13.8286 139.169 14.8026 139.89 16.0688C140.63 17.335 141 18.7961 141 20.4519C141 22.1077 140.62 23.5687 139.86 24.8349C139.12 26.1011 138.107 27.0849 136.822 27.7862C135.555 28.468 134.133 28.8089 132.555 28.8089ZM132.555 25.244C133.296 25.244 133.987 25.0687 134.63 24.718C135.292 24.3479 135.818 23.8025 136.208 23.0817C136.597 22.3609 136.792 21.4843 136.792 20.4519C136.792 18.9129 136.383 17.7344 135.565 16.9162C134.766 16.0786 133.783 15.6598 132.614 15.6598C131.445 15.6598 130.461 16.0786 129.663 16.9162C128.883 17.7344 128.494 18.9129 128.494 20.4519C128.494 21.9908 128.874 23.1791 129.633 24.0168C130.413 24.8349 131.387 25.244 132.555 25.244Z" fill="#374914"/>
<path fill-rule="evenodd" clip-rule="evenodd" d="M13.3382 12.8113C12.4084 13.3496 11.2618 13.3496 10.332 12.8113L7.19047 10.9925C6.40307 10.5367 5.43201 10.5367 4.64462 10.9925C3.86004 11.4468 3.37695 12.2847 3.37695 13.1912L3.37695 20.1181C3.37695 21.1886 3.94739 22.178 4.87384 22.7144L10.332 25.8744C11.2618 26.4126 12.4084 26.4126 13.3382 25.8744L18.7963 22.7144C19.7228 22.178 20.2932 21.1886 20.2932 20.1181L20.2932 13.1912C20.2932 12.2847 19.8101 11.4468 19.0256 10.9925C18.2382 10.5367 17.2671 10.5367 16.4797 10.9925L13.3382 12.8113ZM16.2495 7.22374C17.1793 6.68544 18.3259 6.68544 19.2557 7.22374L22.1733 8.91284C23.0997 9.44921 23.6702 10.4386 23.6702 11.5091L23.6702 22.0651C23.6702 23.1356 23.0997 24.125 22.1733 24.6614L13.3382 29.7764C12.4084 30.3147 11.2618 30.3147 10.332 29.7764L1.49689 24.6614C0.57044 24.125 0 23.1356 0 22.0651L0 11.5091C0 10.4386 0.57044 9.44921 1.49689 8.91284L4.41443 7.22374C5.34422 6.68544 6.49087 6.68544 7.42065 7.22374L10.332 8.90924C11.2618 9.44754 12.4084 9.44754 13.3382 8.90924L16.2495 7.22374Z" fill="#B7E459"/>
<path fill-rule="evenodd" clip-rule="evenodd" d="M6.98221 20.6665C6.49614 20.3812 6.19757 19.8597 6.19757 19.2961C6.19757 18.0679 7.53161 17.304 8.59089 17.9258L10.5049 19.0492C11.3987 19.5738 12.5063 19.5738 13.4001 19.0492L15.314 17.9258C16.3733 17.304 17.7073 18.0679 17.7073 19.2961C17.7073 19.8598 17.4088 20.3812 16.9227 20.6665L13.471 22.6925C12.5334 23.2428 11.3714 23.2428 10.4338 22.6925L6.98221 20.6665Z" fill="#B7E459"/>
<path d="M157 9L176 28" stroke="#FFE3A1"/>
<path d="M176 9L157 28" stroke="#FFE3A1"/>
<path d="M231.731 9.40894H240.136C242.144 9.40894 243.918 9.79279 245.458 10.5593C247 11.3271 248.2 12.4064 249.056 13.7998C249.91 15.1908 250.339 16.811 250.339 18.6627C250.339 20.512 249.91 22.1322 249.056 23.5256C248.2 24.9166 247 25.9948 245.458 26.7614C243.918 27.5291 242.144 27.9118 240.136 27.9118H231.731V9.40894ZM239.921 24.3964C241.773 24.3964 243.248 23.8819 244.348 22.8518C245.451 21.8194 246.003 20.4227 246.003 18.6627C246.003 16.9004 245.451 15.5036 244.348 14.4735C243.248 13.4411 241.773 12.9243 239.921 12.9243H236.011V24.3964H239.921Z" fill="black"/>
<path d="M267.198 20.8533C267.198 20.9083 267.172 21.2784 267.12 21.9625H256.363C256.556 22.8459 257.012 23.5426 257.734 24.0525C258.458 24.5635 259.357 24.8179 260.433 24.8179C261.172 24.8179 261.828 24.7079 262.399 24.4879C262.973 24.2679 263.509 23.9196 264.004 23.4429L266.194 25.8216C264.856 27.3559 262.9 28.1225 260.328 28.1225C258.724 28.1225 257.304 27.8108 256.07 27.1875C254.838 26.5618 253.888 25.6933 253.219 24.5841C252.55 23.4727 252.215 22.2123 252.215 20.8029C252.215 19.4096 252.545 18.1537 253.205 17.0354C253.865 15.9171 254.773 15.0451 255.928 14.4183C257.083 13.7927 258.373 13.4788 259.801 13.4788C261.191 13.4788 262.45 13.779 263.577 14.3771C264.705 14.9764 265.589 15.8369 266.231 16.9575C266.875 18.0758 267.198 19.3752 267.198 20.8533ZM259.824 16.6C258.891 16.6 258.107 16.8647 257.472 17.3929C256.84 17.9223 256.451 18.6442 256.308 19.5608H263.316C263.175 18.6625 262.787 17.9452 262.152 17.4067C261.516 16.8693 260.74 16.6 259.824 16.6Z" fill="black"/>
<path d="M276.822 28.1225C275.306 28.1225 273.945 27.8108 272.738 27.1875C271.531 26.5618 270.589 25.6933 269.91 24.5841C269.232 23.4727 268.893 22.2123 268.893 20.8029C268.893 19.3912 269.232 18.1308 269.91 17.0217C270.589 15.9125 271.531 15.0451 272.738 14.4183C273.945 13.7927 275.306 13.4788 276.822 13.4788C278.319 13.4788 279.627 13.7927 280.745 14.4183C281.864 15.0451 282.677 15.9389 283.188 17.0996L279.994 18.8183C279.251 17.5144 278.184 16.8612 276.795 16.8612C275.719 16.8612 274.828 17.2142 274.123 17.92C273.419 18.6258 273.068 19.5872 273.068 20.8029C273.068 22.0198 273.419 22.98 274.123 23.6858C274.828 24.3894 275.719 24.74 276.795 24.74C278.203 24.74 279.27 24.088 279.994 22.7829L283.188 24.5291C282.677 25.6566 281.864 26.5389 280.745 27.1737C279.627 27.8062 278.319 28.1225 276.822 28.1225Z" fill="black"/>
<path d="M299.497 20.8533C299.497 20.9083 299.47 21.2784 299.419 21.9625H288.662C288.854 22.8459 289.31 23.5426 290.032 24.0525C290.756 24.5635 291.656 24.8179 292.732 24.8179C293.471 24.8179 294.126 24.7079 294.698 24.4879C295.272 24.2679 295.807 23.9196 296.302 23.4429L298.493 25.8216C297.155 27.3559 295.199 28.1225 292.626 28.1225C291.022 28.1225 289.602 27.8108 288.368 27.1875C287.137 26.5618 286.187 25.6933 285.518 24.5841C284.848 23.4727 284.514 22.2123 284.514 20.8029C284.514 19.4096 284.844 18.1537 285.504 17.0354C286.164 15.9171 287.071 15.0451 288.226 14.4183C289.381 13.7927 290.672 13.4788 292.099 13.4788C293.489 13.4788 294.748 13.779 295.876 14.3771C297.003 14.9764 297.888 15.8369 298.53 16.9575C299.174 18.0758 299.497 19.3752 299.497 20.8533ZM292.122 16.6C291.189 16.6 290.406 16.8647 289.771 17.3929C289.138 17.9223 288.75 18.6442 288.607 19.5608H295.615C295.474 18.6625 295.085 17.9452 294.45 17.4067C293.815 16.8693 293.039 16.6 292.122 16.6Z" fill="black"/>
<path d="M310.89 13.4788C312.652 13.4788 314.075 14.0081 315.157 15.0646C316.241 16.1222 316.784 17.6908 316.784 19.7717V27.9116H312.659V20.4042C312.659 19.2767 312.412 18.4368 311.917 17.8833C311.424 17.3276 310.712 17.0492 309.781 17.0492C308.741 17.0492 307.913 17.3723 307.297 18.0162C306.679 18.6579 306.371 19.6135 306.371 20.8808V27.9116H302.246V13.6896H306.187V15.3579C306.73 14.7598 307.408 14.2969 308.218 13.9692C309.03 13.6426 309.92 13.4788 310.89 13.4788Z" fill="black"/>
<path d="M329.681 27.2241C329.277 27.5243 328.779 27.7489 328.186 27.8979C327.596 28.0468 326.976 28.1224 326.326 28.1224C324.632 28.1224 323.324 27.6916 322.398 26.8299C321.474 25.966 321.014 24.6964 321.014 23.0212V17.1821H318.818V14.0104H321.014V10.5454H325.134V14.0104H328.677V17.1821H325.134V22.9708C325.134 23.5701 325.288 24.033 325.597 24.3595C325.905 24.6838 326.342 24.8454 326.908 24.8454C327.559 24.8454 328.113 24.6701 328.571 24.3183L329.681 27.2241Z" fill="black"/>
<path d="M335.949 15.5688C336.44 14.8813 337.105 14.3622 337.942 14.0104C338.779 13.6564 339.744 13.4788 340.834 13.4788V17.2875C340.376 17.2508 340.069 17.2325 339.913 17.2325C338.731 17.2325 337.805 17.5648 337.136 18.2271C336.466 18.8871 336.132 19.8771 336.132 21.1971V27.9116H332.007V13.6896H335.949V15.5688Z" fill="black"/>
<path d="M357.327 20.8533C357.327 20.9083 357.301 21.2784 357.249 21.9625H346.492C346.685 22.8459 347.141 23.5426 347.863 24.0525C348.587 24.5635 349.486 24.8179 350.562 24.8179C351.301 24.8179 351.957 24.7079 352.528 24.4879C353.102 24.2679 353.638 23.9196 354.133 23.4429L356.323 25.8216C354.985 27.3559 353.029 28.1225 350.457 28.1225C348.853 28.1225 347.433 27.8108 346.199 27.1875C344.967 26.5618 344.017 25.6933 343.348 24.5841C342.679 23.4727 342.344 22.2123 342.344 20.8029C342.344 19.4096 342.674 18.1537 343.334 17.0354C343.994 15.9171 344.902 15.0451 346.057 14.4183C347.212 13.7927 348.502 13.4788 349.93 13.4788C351.32 13.4788 352.579 13.779 353.706 14.3771C354.834 14.9764 355.718 15.8369 356.36 16.9575C357.004 18.0758 357.327 19.3752 357.327 20.8533ZM349.953 16.6C349.02 16.6 348.236 16.8647 347.601 17.3929C346.969 17.9223 346.58 18.6442 346.437 19.5608H353.445C353.304 18.6625 352.916 17.9452 352.281 17.4067C351.645 16.8693 350.869 16.6 349.953 16.6Z" fill="black"/>
<path d="M374.005 20.8533C374.005 20.9083 373.979 21.2784 373.927 21.9625H363.17C363.363 22.8459 363.819 23.5426 364.541 24.0525C365.265 24.5635 366.164 24.8179 367.24 24.8179C367.979 24.8179 368.635 24.7079 369.206 24.4879C369.781 24.2679 370.316 23.9196 370.811 23.4429L373.001 25.8216C371.663 27.3559 369.707 28.1225 367.135 28.1225C365.531 28.1225 364.111 27.8108 362.877 27.1875C361.645 26.5618 360.695 25.6933 360.026 24.5841C359.357 23.4727 359.022 22.2123 359.022 20.8029C359.022 19.4096 359.352 18.1537 360.012 17.0354C360.672 15.9171 361.58 15.0451 362.735 14.4183C363.89 13.7927 365.18 13.4788 366.608 13.4788C367.998 13.4788 369.257 13.779 370.384 14.3771C371.512 14.9764 372.396 15.8369 373.038 16.9575C373.682 18.0758 374.005 19.3752 374.005 20.8533ZM366.631 16.6C365.698 16.6 364.914 16.8647 364.279 17.3929C363.647 17.9223 363.258 18.6442 363.115 19.5608H370.123C369.982 18.6625 369.594 17.9452 368.959 17.4067C368.323 16.8693 367.547 16.6 366.631 16.6Z" fill="black"/>
<path d="M205.639 13.9275C204.971 13.9275 204.429 14.4695 204.429 15.1375C204.429 15.8055 204.971 16.3475 205.639 16.3475C206.307 16.3475 206.849 15.8055 206.849 15.1375C206.849 14.4695 206.307 13.9275 205.639 13.9275Z" fill="black"/>
<path d="M193.21 15.1377C192.542 15.1377 192 15.6797 192 16.3477C192 17.0157 192.542 17.5577 193.21 17.5577C193.878 17.5577 194.42 17.0157 194.42 16.3477C194.42 15.6797 193.878 15.1377 193.21 15.1377Z" fill="black"/>
<path d="M202.32 5.65356C201.652 5.65356 201.11 6.19554 201.11 6.86356C201.11 7.53273 201.652 8.07356 202.32 8.07356C202.988 8.07356 203.53 7.53273 203.53 6.86356C203.53 6.19554 202.988 5.65356 202.32 5.65356Z" fill="black"/>
<path d="M211.504 9.75781C211.14 9.75781 210.844 10.0534 210.844 10.4178C210.844 10.7822 211.14 11.0778 211.504 11.0778C211.869 11.0778 212.164 10.7822 212.164 10.4178C212.164 10.0534 211.869 9.75781 211.504 9.75781Z" fill="black"/>
<path d="M217.677 17.3125C216.826 17.3125 216.137 18.0023 216.137 18.8525C216.137 19.7027 216.826 20.3925 217.677 20.3925C218.527 20.3925 219.217 19.7027 219.217 18.8525C219.217 18.0023 218.527 17.3125 217.677 17.3125Z" fill="black"/>
<path d="M199.597 12.6707C199.231 12.6707 198.937 12.9663 198.937 13.3307C198.937 13.695 199.231 13.9907 199.597 13.9907C199.961 13.9907 200.257 13.695 200.257 13.3307C200.257 12.9663 199.961 12.6707 199.597 12.6707Z" fill="black"/>
<path d="M210.653 1.81958C209.803 1.81958 209.113 2.50937 209.113 3.35958C209.113 4.20978 209.803 4.89957 210.653 4.89957C211.503 4.89957 212.193 4.20978 212.193 3.35958C212.193 2.50937 211.503 1.81958 210.653 1.81958Z" fill="black"/>
<path d="M195.605 4.92822C194.632 4.92822 193.845 5.71655 193.845 6.68822C193.845 7.65988 194.632 8.44821 195.605 8.44821C196.576 8.44821 197.365 7.65988 197.365 6.68822C197.365 5.71655 196.576 4.92822 195.605 4.92822Z" fill="black"/>
<path d="M205.983 9.49902C205.557 9.49902 205.213 9.84392 205.213 10.269C205.213 10.6941 205.557 11.039 205.983 11.039C206.408 11.039 206.753 10.6941 206.753 10.269C206.753 9.84392 206.408 9.49902 205.983 9.49902Z" fill="black"/>
<path d="M220.407 8.28906C219.739 8.28906 219.197 8.83104 219.197 9.49906C219.197 10.1671 219.739 10.7091 220.407 10.7091C221.077 10.7091 221.617 10.1671 221.617 9.49906C221.617 8.83104 221.077 8.28906 220.407 8.28906Z" fill="black"/>
<path d="M202.365 21.1577C201.879 21.1577 201.485 21.5519 201.485 22.0377C201.485 22.5235 201.879 22.9177 202.365 22.9177C202.851 22.9177 203.245 22.5235 203.245 22.0377C203.245 21.5519 202.851 21.1577 202.365 21.1577Z" fill="black"/>
<path d="M209.816 20.9985C209.33 20.9985 208.936 21.3916 208.936 21.8785C208.936 22.3644 209.33 22.7585 209.816 22.7585C210.302 22.7585 210.696 22.3644 210.696 21.8785C210.696 21.3916 210.302 20.9985 209.816 20.9985Z" fill="black"/>
<path d="M194.62 15.5476L198.651 13.7555" stroke="black" stroke-width="1.26624" stroke-linecap="round"/>
<path d="M202.895 20.9962L205.129 16.453" stroke="black" stroke-width="1.64884" stroke-linecap="round"/>
<path d="M194.498 17.4788L201.246 21.6175" stroke="black" stroke-width="1.65549" stroke-linecap="round"/>
<path d="M201.806 20.9219L199.906 14.37" stroke="black" stroke-width="1.64911" stroke-linecap="round"/>
<path d="M200.393 12.8699L204.801 10.8486" stroke="black" stroke-width="1.26689" stroke-linecap="round"/>
<path d="M205.76 13.4863L205.993 11.5247" stroke="black" stroke-width="1.28746" stroke-linecap="round"/>
<path d="M200.511 13.6709L204.17 14.4523" stroke="black" stroke-width="1.28238" stroke-linecap="round"/>
<path d="M196.88 8.70587L198.867 12.3886" stroke="black" stroke-width="1.27353" stroke-linecap="round"/>
<path d="M193.633 14.6885L195.173 9.17248" stroke="black" stroke-width="1.26898" stroke-linecap="round"/>
<path d="M197.874 6.59746L200.745 6.67766" stroke="black" stroke-width="1.26223" stroke-linecap="round"/>
<path d="M203.671 7.82373L205.235 9.65361" stroke="black" stroke-width="1.29806" stroke-linecap="round"/>
<path d="M203.831 6.34788L208.838 4.05508" stroke="black" stroke-width="1.27041" stroke-linecap="round"/>
<path d="M206.812 14.1967L210.804 11.0961" stroke="black" stroke-width="1.29014" stroke-linecap="round"/>
<path d="M209.202 20.7621L206.529 16.2155" stroke="black" stroke-width="1.66135" stroke-linecap="round"/>
<path d="M212.507 10.2998L219.085 9.85409" stroke="black" stroke-width="1.28932" stroke-linecap="round"/>
<path d="M216.469 17.3687L212.156 11.2591" stroke="black" stroke-width="1.28423" stroke-linecap="round"/>
<path d="M206.668 9.27882L209.633 4.90863" stroke="black" stroke-width="1.28035" stroke-linecap="round"/>
<path d="M207.332 10.3813L210.631 10.3241" stroke="black" stroke-width="1.28097" stroke-linecap="round"/>
<path d="M211.365 9.45187L210.878 5.29023" stroke="black" stroke-width="1.26655" stroke-linecap="round"/>
<path d="M210.92 21.4031L215.958 19.2042" stroke="black" stroke-width="1.6565" stroke-linecap="round"/>
<path d="M218.101 17.011L219.99 11.1432" stroke="black" stroke-width="1.27424" stroke-linecap="round"/>
<path d="M212.179 4.50187L219.078 8.81594" stroke="black" stroke-width="1.28565" stroke-linecap="round"/>
<path d="M201.923 0C201.559 0 201.263 0.295624 201.263 0.659998C201.263 1.02437 201.559 1.32 201.923 1.32C202.287 1.32 202.583 1.02437 202.583 0.659998C202.583 0.295624 202.287 0 201.923 0Z" fill="black"/>
<path d="M197.12 5.19189L201.209 1.5172" stroke="black" stroke-width="1.28705" stroke-linecap="round"/>
<path d="M202.228 5.22852L202.073 1.70967" stroke="black" stroke-width="1.27534" stroke-linecap="round"/>
<path d="M202.852 1.08293L208.973 2.86926" stroke="black" stroke-width="1.28669" stroke-linecap="round"/>
<path d="M208.501 26.9524C208.501 23.8666 211.588 21.8408 211.588 21.8408H209.964C207.309 26.0907 206.133 25.7412 206.005 25.6862V25.6805C206.005 25.6805 206.002 25.6816 205.999 25.6816C205.994 25.6816 205.993 25.6805 205.993 25.6805V25.6862C205.866 25.7412 204.687 26.0907 202.032 21.8408H200.406C200.406 21.8408 203.495 23.8666 203.495 26.9524C203.495 26.9524 203.206 31.1965 202.196 35.019L201.164 37.0002H210.831L209.803 35.019C208.791 31.1965 208.501 26.9524 208.501 26.9524Z" fill="black"/>
<path d="M209.988 20.6433L211.544 11.534" stroke="black" stroke-width="1.6495" stroke-linecap="round"/>
<path d="M203.395 22.0288L208.466 21.9749" stroke="black" stroke-width="1.6356" stroke-linecap="round"/>
</svg>
